HIERARCHY
ROOT pelvis
{
  OFFSET 0 100 0
  CHANNELS 6 Xposition Yposition Zposition Zrotation Xrotation Yrotation
  JOINT pelvis_right_femur
  {
    OFFSET -10.78128 -3.44521 -0.5502486
    CHANNELS 3 Zrotation Xrotation Yrotation
    JOINT right_femur_tibia
    {
      OFFSET -0.8047443 -44.0398 -0.1307829
      CHANNELS 3 Zrotation Xrotation Yrotation
      JOINT right_tibia_foot
      {
        OFFSET 3.006224 -47.83518 -5
        CHANNELS 3 Zrotation Xrotation Yrotation
        End Site
        {
          OFFSET 0 -5 15
        }
      }
    }
  }
  JOINT pelvis_left_femur
  {
    OFFSET 10.78128 -3.44521 -0.5502486
    CHANNELS 3 Zrotation Xrotation Yrotation
    JOINT left_femur_tibia
    {
      OFFSET 0.8047443 -44.0398 -0.1307829
      CHANNELS 3 Zrotation Xrotation Yrotation
      JOINT left_tibia_foot
      {
        OFFSET -4.370144 -48.10324 -4.275266
        CHANNELS 3 Zrotation Xrotation Yrotation
        End Site
        {
          OFFSET 0 -5 15
        }
      }
    }
  }
  JOINT pelvis_spine1
  {
    OFFSET 0 6.468898 -3.129235
    CHANNELS 3 Zrotation Xrotation Yrotation
    JOINT spine1
    {
      OFFSET 0 23.15396 4.99043
      CHANNELS 3 Zrotation Xrotation Yrotation
      JOINT spine2
      {
        OFFSET 0 20.79997 -5.064912
        CHANNELS 3 Zrotation Xrotation Yrotation
        JOINT neck
        {
          OFFSET 0 14.38658 9.616178
          CHANNELS 3 Zrotation Xrotation Yrotation
          End Site
          {
            OFFSET 0 20 0
          }
        }
      }
      JOINT right_manubrium
      {
        OFFSET -5.722621 16.35077 3.967754
        CHANNELS 3 Zrotation Xrotation Yrotation
        JOINT right_clavicle
        {
          OFFSET -13.16364 1.694482 -4.693211
          CHANNELS 3 Zrotation Xrotation Yrotation
          JOINT right_humerus
          {
            OFFSET -28.5034 -0.3100689 -2.792744
            CHANNELS 3 Zrotation Xrotation Yrotation
            JOINT right_radius
            {
              OFFSET -25.15693 0.02248979 -1.271978
              CHANNELS 3 Zrotation Xrotation Yrotation
              End Site
              {
                OFFSET -15 0 0
              }
            }
          }
        }
      }
      JOINT left_manubrium
      {
        OFFSET 5.722621 16.35077 3.967754
        CHANNELS 3 Zrotation Xrotation Yrotation
        JOINT left_clavicle
        {
          OFFSET 13.16364 1.694482 -4.693211
          CHANNELS 3 Zrotation Xrotation Yrotation
          JOINT left_humerus
          {
            OFFSET 29.39168 -1.063119 -2.237045
            CHANNELS 3 Zrotation Xrotation Yrotation
            JOINT left_radius
            {
              OFFSET 24.59957 -0.9528479 0.9047498
              CHANNELS 3 Zrotation Xrotation Yrotation
              End Site
              {
                OFFSET 15 -0 -0
              }
            }
          }
        }
      }
    }
  }
}
MOTION
Frames: 9
Frame Time: 0.0416666666667
0 103.5113 0 0.773458 -0.4919597 -0.1381692 3.35864 -14.95622 11.12963 -0 38.56698 -0 -5.265156 -19.20234 -4.085258 -7.091438 9.171014 -22.71764 -0 3.343268 -0 9.81956 -17.19675 28.14273 -3.439558 -4.729206 5.550917 2.696359 9.388783 -8.004294 1.385757 22.29959 6.106685 1.990069 -25.82277 9.804871 5.896504 -21.00839 11.29474 85.63134 33.90754 -19.32709 -0 0 17.61469 -6.32495 7.924168 3.278156 5.81439 -19.65522 -0.7301192 -95.89848 25.80375 24.42971 0 0 -11.99208 9.584977 18.79963 3.471454
0.2856737 104.1134 1.255064 0.5544752 -0.4343856 -0.2058453 3.583034 -15.86779 10.66729 -0 38.55399 -0 -5.601477 -17.46309 -3.831352 -6.873289 9.523295 -22.4761 -0 3.908253 -0 9.044279 -17.63491 27.51355 -3.276236 -4.481622 5.297086 2.593226 9.40363 -7.929021 1.448052 22.24796 6.268394 2.158101 -25.85982 9.924277 5.830084 -20.74161 11.23211 85.78648 33.95071 -19.29982 -0 0 17.1702 -6.790204 8.325125 3.435546 5.92226 -19.82695 -0.7688903 -95.65776 25.92718 24.08975 0 0 -12.41435 9.534492 18.98016 3.601966
0.525169 104.6196 2.743672 0.1228451 0.6475179 -0.2565749 4.860004 -19.07109 10.92946 -0 34.71175 -0 -5.092376 -18.27402 -3.988903 -6.589939 10.06795 -22.29809 -0 4.621659 -0 7.740113 -18.96306 26.73373 -2.778549 -4.140775 5.474365 2.612628 8.850426 -7.977256 1.585356 21.77927 6.344237 2.365977 -26.08003 10.04266 5.872516 -20.3669 10.97395 85.6571 34.15334 -19.86245 -0 0 17.46728 -5.706676 8.237274 2.513269 6.633725 -19.97966 -0.3320302 -95.94747 26.68141 24.0594 0 0 -13.76489 9.185894 18.87719 4.357369
0.7309313 105.039 4.344099 -0.114318 1.202125 -0.2850881 5.514533 -20.55644 11.06129 -0 32.53215 -0 -4.78117 -18.948 -4.130603 -6.398669 10.41404 -22.25316 -0 5.067947 -0 6.329296 -19.95179 26.00331 -2.454512 -3.979773 5.579907 2.574664 8.417926 -7.988127 1.646289 21.57367 6.411225 2.50569 -26.10275 10.08338 5.897657 -20.10647 10.76767 85.55264 34.13856 -20.27338 -0 0 17.7642 -5.111922 8.187821 1.873131 7.051874 -20.04643 -0.0739817 -96.47015 27.63411 24.381 0 0 -14.42207 8.238031 19.11105 5.636562
0.9030259 105.4438 6.20408 -0.4737581 1.62667 -0.2289821 6.11673 -22.33529 10.72721 -0 30.90372 -0 -4.914113 -17.81041 -4.015455 -6.057982 10.97056 -21.95467 -0 5.978755 -0 4.409305 -21.00861 24.73104 -2.079817 -3.649531 5.416012 2.459309 8.130633 -7.955755 1.717242 21.38956 6.623292 2.783341 -26.10334 10.17361 5.87167 -19.67053 10.57376 85.64127 34.16557 -20.61193 -0 0 17.55414 -5.170026 8.50964 1.585357 7.426977 -20.29339 0.044218 -96.66799 28.52218 24.35989 0 0 -15.28704 7.290233 19.41723 6.910098
1.062495 105.9492 8.585484 -0.9997091 1.736619 0.01951956 6.478894 -24.41464 9.524806 -0 30.55182 -0 -5.951533 -13.04443 -3.327398 -5.565073 11.68088 -20.94594 -0 7.620537 -0 2.736959 -21.61529 22.93394 -1.778181 -3.055134 4.745173 2.372918 8.397031 -7.946345 1.745056 21.20126 7.024016 3.178269 -26.29612 10.31521 5.648096 -19.12408 10.57721 86.22183 34.09572 -20.71814 -0 0 16.17111 -6.554061 9.304137 2.34334 7.535187 -20.92618 -0.1754327 -95.72705 28.31513 23.28443 0 0 -16.33743 7.415151 19.29479 6.84356
1.244631 106.5436 11.77956 -1.68782 1.748666 0.5181848 6.697953 -27.19528 7.450203 -0 29.1611 -0 -7.584015 -5.962184 -2.115274 -4.986433 12.39046 -18.86541 -0 9.933729 -0 1.184606 -21.88202 20.36396 -1.466478 -2.157408 3.784385 2.470376 9.094485 -8.088269 1.637701 20.86206 7.546364 3.621864 -26.73435 10.34664 5.038613 -18.57673 10.80368 87.32609 33.32193 -20.9356 -0 0 13.8802 -8.919104 9.93154 4.012049 7.506755 -22.04636 -0.7347947 -93.75284 26.8451 21.19865 0 0 -17.85494 8.470822 18.12115 5.56339
1.507996 106.9128 15.95188 -2.143616 1.051948 1.182727 5.866601 -29.56067 3.763421 -0 24.53135 -0 -9.480107 1.397144 -0.5763483 -4.578619 12.94178 -15.26647 -0 11.61534 -0 0.197794 -21.51415 17.02895 -1.280397 -0.9989377 2.716888 2.877059 10.27667 -8.471617 1.19708 20.5946 8.030752 3.821317 -27.09404 9.925666 3.431478 -18.39242 11.39045 89.30192 30.20588 -21.503 -0 0 10.75295 -12.57126 9.328791 6.923704 7.110801 -23.79559 -2.169024 -90.50215 23.69513 17.73079 0 0 -20.21502 9.989864 15.03126 3.289014
1.791004 106.2113 20.89428 -1.301017 -1.427932 1.703913 2.86151 -29.18078 -1.453766 -0 13.39369 -0 -9.984095 2.907067 -0.590446 -4.828639 14.21412 -10.88547 -0 9.605721 -0 -0.1737093 -21.28278 14.01826 -1.479375 -0.15453 2.183976 3.217145 11.09706 -8.814216 0.6514645 21.24714 7.766284 3.103534 -26.02843 8.757496 -0.07647996 -18.76212 11.77872 92.57876 22.73756 -22.73346 -0 0 7.316219 -16.58391 6.445507 9.952074 6.341982 -25.83529 -4.755101 -86.08142 20.76172 12.16286 0 0 -24.92855 9.800625 10.94607 2.411472
